<svg width="49" height="35" viewBox="0 0 49 35" fill="none" xmlns="http://www.w3.org/2000/svg">
<path d="M24.269 0.659879L24.2688 0.65992C24.1997 0.681529 23.9986 0.795504 23.8699 0.909038L23.8697 0.90918C23.8713 0.907855 23.8692 0.910034 23.8628 0.916768C23.849 0.931306 23.815 0.967076 23.7533 1.03467C23.6737 1.12201 23.5646 1.24377 23.4287 1.39681C23.1573 1.70258 22.7832 2.1287 22.3334 2.64449C21.4338 3.67584 20.2336 5.06282 18.95 6.55629C16.3892 9.53572 14.2223 12.0524 14.1477 12.1327L14.1473 12.133C13.9605 12.3337 13.7132 12.3108 13.6526 12.3045C13.5567 12.2946 13.458 12.2666 13.3688 12.2369C13.1836 12.1753 12.9182 12.0643 12.5466 11.8959C11.7966 11.556 10.5426 10.9495 8.47543 9.93674C5.72756 8.59058 3.30956 7.42659 3.07554 7.33426L3.07552 7.33425C2.42223 7.07646 1.76842 7.28407 1.39336 7.85409L1.39331 7.85417C1.37242 7.88591 1.35425 7.91317 1.33844 7.9369C1.24279 8.08041 1.23309 8.09496 1.22582 8.19271C1.21257 8.37079 1.25266 8.71974 1.45583 9.53312C1.82984 11.0304 2.69236 13.8747 4.43097 19.608C4.54809 19.9943 4.66919 20.3936 4.79439 20.8065C5.78136 24.0618 6.69615 27.0583 7.37488 29.2635C7.71428 30.3662 7.99447 31.2704 8.19508 31.9101C8.29544 32.2301 8.37555 32.4828 8.43307 32.6606C8.46189 32.7497 8.48453 32.8185 8.50094 32.8668C8.51241 32.9006 8.51819 32.9163 8.51963 32.9205C8.62796 33.1394 8.89881 33.3834 9.2422 33.5101C9.25277 33.511 9.26616 33.512 9.28264 33.513C9.34606 33.517 9.43839 33.5212 9.56024 33.5253C9.80296 33.5336 10.1487 33.5413 10.5844 33.5485C11.455 33.5629 12.676 33.5749 14.1316 33.5845C17.0424 33.6037 20.8861 33.6133 24.7304 33.6133C28.5747 33.6133 32.4184 33.6037 35.3292 33.5845C36.7848 33.5749 38.0058 33.5629 38.8765 33.5485C39.3122 33.5413 39.6579 33.5336 39.9006 33.5253C40.0224 33.5212 40.1148 33.517 40.1782 33.513C40.1947 33.512 40.2081 33.511 40.2186 33.5101C40.5618 33.3835 40.8327 33.1394 40.9409 32.9211C40.9424 32.9168 40.9481 32.9011 40.9595 32.8675C40.9759 32.8192 40.9986 32.7504 41.0274 32.6613C41.0848 32.4835 41.1649 32.2308 41.2652 31.9108C41.4657 31.2712 41.7458 30.367 42.0851 29.2643C42.7635 27.0591 43.6779 24.0626 44.6645 20.8072L44.8315 20.2564C46.6445 14.2741 47.5449 11.3031 47.9493 9.73453C48.16 8.91703 48.2221 8.53 48.2236 8.31276C48.2247 8.1634 48.2035 8.12053 48.125 7.96109C48.1198 7.95061 48.1144 7.93962 48.1087 7.92806L48.1087 7.92801C47.8556 7.41257 47.1352 7.09837 46.5796 7.26531C46.5836 7.26412 46.5815 7.265 46.5711 7.26929C46.5557 7.27571 46.5218 7.28977 46.4624 7.31603C46.376 7.35421 46.2577 7.40808 46.1101 7.47649C45.8154 7.61309 45.4107 7.80439 44.9248 8.03671C43.9533 8.50118 42.6617 9.12744 41.2848 9.80325L24.269 0.659879ZM24.269 0.659879C24.4263 0.610644 24.6619 0.596966 24.9137 0.635601C25.1678 0.674577 25.3729 0.756654 25.4851 0.839697C25.4761 0.833082 25.4771 0.83405 25.492 0.848888C25.5077 0.864556 25.5389 0.895687 25.5903 0.949682C25.6739 1.03743 25.7881 1.16079 25.9303 1.31708C26.2144 1.62914 26.6035 2.06497 27.0701 2.59344C28.0031 3.64997 29.2417 5.07189 30.5604 6.60383C32.1291 8.42614 33.3448 9.82089 34.182 10.7593M24.269 0.659879L34.182 10.7593M34.182 10.7593C34.6001 11.2279 34.9268 11.5861 35.1571 11.8278M34.182 10.7593L35.1571 11.8278M35.1571 11.8278C35.2713 11.9476 35.3673 12.0447 35.4415 12.1137M35.1571 11.8278L35.4415 12.1137M35.4415 12.1137C35.4772 12.147 35.5174 12.1826 35.5572 12.2125M35.4415 12.1137L35.5572 12.2125M35.5572 12.2125C35.576 12.2267 35.6076 12.2494 35.647 12.2703M35.5572 12.2125L35.647 12.2703M35.647 12.2703C35.6668 12.2808 35.6994 12.2967 35.7412 12.3098M35.647 12.2703L35.7412 12.3098M35.7412 12.3098C35.7779 12.3212 35.8569 12.3418 35.9571 12.3295L35.7412 12.3098ZM9.20921 33.5067C9.20952 33.5067 9.21228 33.507 9.21696 33.5078C9.21127 33.5071 9.20889 33.5067 9.20921 33.5067ZM35.3963 15.6328L35.3963 15.6328C35.1404 15.6576 35.0875 15.6592 35.0079 15.6305C34.91 15.5953 34.7361 15.492 34.3757 15.1436C33.6728 14.4643 32.4659 13.0648 29.9915 10.1954L29.8485 10.0297C28.5672 8.54384 27.3949 7.19035 26.5383 6.20655C26.1102 5.71477 25.7604 5.31478 25.5151 5.03666C25.3927 4.89781 25.2953 4.78817 25.2268 4.71232C25.193 4.67476 25.1643 4.64337 25.1425 4.62021C25.1321 4.60917 25.12 4.59645 25.1081 4.5848C25.1028 4.57956 25.0925 4.56952 25.0799 4.55843C25.0739 4.55321 25.0616 4.54268 25.0454 4.53074L25.0448 4.53029C25.0381 4.5252 24.9859 4.48584 24.9107 4.45988C24.7382 4.40036 24.5956 4.45502 24.5702 4.46478L24.5687 4.46536C24.5232 4.48264 24.4904 4.50281 24.4767 4.51145C24.4468 4.53043 24.4246 4.54894 24.4163 4.55588C24.3962 4.57284 24.3781 4.59029 24.3665 4.60167C24.3408 4.62691 24.3092 4.65989 24.2746 4.69669C24.2041 4.77183 24.105 4.88064 23.9819 5.0177C23.7348 5.29265 23.3831 5.69027 22.9532 6.18024C22.093 7.16062 20.9161 8.51514 19.6299 10.0074C17.6795 12.2701 16.4972 13.6296 15.7583 14.445C15.3882 14.8535 15.1364 15.1175 14.9588 15.2877C14.7729 15.4661 14.7003 15.5095 14.6859 15.5165L14.6858 15.5166C14.494 15.61 14.4123 15.6388 14.3229 15.646C14.2303 15.6534 14.0786 15.6398 13.7685 15.5337C13.1313 15.3157 12.0504 14.7912 9.86871 13.7186L9.8687 13.7186C8.79422 13.1905 7.81125 12.7152 7.09279 12.3747C6.73399 12.2047 6.43901 12.0673 6.23089 11.9736C6.12765 11.9271 6.04139 11.8893 5.97792 11.8633C5.94765 11.8509 5.91406 11.8377 5.88323 11.8274C5.87011 11.823 5.84207 11.8138 5.80863 11.8069C5.79413 11.8039 5.75679 11.7965 5.70918 11.7958C5.68541 11.7954 5.64119 11.7963 5.58759 11.8088C5.53827 11.8202 5.43718 11.8513 5.34557 11.9431L5.34428 11.9444C5.25778 12.0317 5.22785 12.126 5.21784 12.1616C5.20552 12.2055 5.20186 12.2417 5.20045 12.2607C5.1976 12.2991 5.19987 12.3297 5.20082 12.3413C5.20303 12.3683 5.20699 12.3906 5.20869 12.3999C5.21276 12.4223 5.21806 12.4454 5.22249 12.464C5.23197 12.5036 5.24579 12.5565 5.26273 12.6192C5.29698 12.746 5.34838 12.9288 5.4146 13.1599C5.54726 13.6229 5.74177 14.2881 5.98335 15.1055C6.46661 16.7407 7.1394 18.9889 7.88508 21.4556L8.36369 21.311L7.88509 21.4557L10.5961 30.4233L10.7035 30.7786H11.0747H24.7303H38.386H38.7572L38.8646 30.4233L41.5754 21.4553C42.321 18.9886 42.9942 16.7409 43.4783 15.1067C43.7203 14.2898 43.9153 13.6253 44.0484 13.1631C44.1149 12.9323 44.1665 12.7502 44.201 12.6241C44.2181 12.5617 44.2319 12.5095 44.2414 12.4708C44.2428 12.4651 44.2443 12.459 44.2458 12.4526C44.2491 12.4389 44.2524 12.424 44.2552 12.4097C44.2568 12.401 44.2608 12.3803 44.2633 12.3554C44.2644 12.3449 44.2671 12.3161 44.2655 12.2796C44.2647 12.2619 44.2623 12.226 44.2515 12.182C44.2436 12.1499 44.2157 12.0442 44.1202 11.9482C44.0187 11.8461 43.905 11.8181 43.8584 11.8092C43.8045 11.7989 43.7607 11.7998 43.7387 11.8009C43.6937 11.8031 43.6587 11.811 43.6457 11.814C43.615 11.8211 43.589 11.8299 43.5766 11.8342C43.5476 11.8444 43.5154 11.8573 43.4855 11.8697C43.4231 11.8957 43.3377 11.9334 43.2347 11.98C43.0273 12.0739 42.7326 12.2114 42.3736 12.3814C41.6549 12.7218 40.6707 13.1965 39.5941 13.7234C38.0896 14.4597 37.0926 14.9372 36.4292 15.2345C36.0971 15.3833 35.8561 15.4835 35.681 15.5478C35.497 15.6153 35.4177 15.6308 35.3963 15.6328ZM41.2848 9.80325L41.0645 9.35439L35.9574 12.3294C36.0188 12.3218 36.0706 12.3028 36.0757 12.3009L36.0761 12.3008C36.0936 12.2946 36.1109 12.2879 36.1254 12.282C36.1552 12.2699 36.1916 12.2543 36.232 12.2364C36.3137 12.2003 36.4259 12.1489 36.5635 12.0849C36.8393 11.9565 37.2263 11.7728 37.6954 11.5479C38.6339 11.0978 39.9058 10.48 41.2848 9.80325Z" />
</svg>
