<svg width="44" height="34" viewBox="0 0 44 34" fill="none" xmlns="http://www.w3.org/2000/svg">
<path d="M29.45 19.6703L27.25 17.528C28.1167 15.2233 27.6667 13.3082 25.9 11.7826C24.1333 10.257 22.2167 9.86754 20.15 10.6141L17.95 8.47178C18.5167 8.11473 19.15 7.85505 19.85 7.69275C20.55 7.53046 21.2667 7.44931 22 7.44931C24.3667 7.44931 26.375 8.25268 28.025 9.85942C29.675 11.4662 30.5 13.4218 30.5 15.7265C30.5 16.4406 30.4083 17.1466 30.225 17.8444C30.0417 18.5423 29.7833 19.1509 29.45 19.6703ZM35.9 25.9512L33.9 24.0036C35.5333 22.8351 36.9583 21.5286 38.175 20.0841C39.3917 18.6397 40.2833 17.1871 40.85 15.7265C39.1833 12.1235 36.6833 9.27515 33.35 7.18152C30.0167 5.08788 26.4 4.04107 22.5 4.04107C21.1 4.04107 19.6667 4.17091 18.2 4.43058C16.7333 4.69026 15.5833 4.99862 14.75 5.35568L12.45 3.06729C13.6167 2.54794 15.1083 2.0935 16.925 1.70399C18.7417 1.31448 20.5167 1.11972 22.25 1.11972C27.0167 1.11972 31.375 2.44244 35.325 5.08789C39.275 7.73333 42.1667 11.2795 44 15.7265C43.1333 17.8039 42.0167 19.7027 40.65 21.4231C39.2833 23.1434 37.7 24.6528 35.9 25.9512ZM35.325 33.9549L30.4 28.9212C29.2333 29.3756 27.9167 29.7246 26.45 29.968C24.9833 30.2115 23.5 30.3332 22 30.3332C17.1333 30.3332 12.7167 29.0105 8.75 26.365C4.78333 23.7196 1.86667 20.1734 0 15.7265C0.666667 14.0386 1.59167 12.3913 2.775 10.7845C3.95833 9.17777 5.4 7.64406 7.1 6.18339L2.9 2.09365L5 2.17756e-05L37.275 31.8126L35.325 33.9549ZM9.15 8.22834C7.91667 9.10474 6.725 10.257 5.575 11.6853C4.425 13.1135 3.6 14.4605 3.1 15.7265C4.8 19.3295 7.35833 22.1778 10.775 24.2714C14.1917 26.365 18.0667 27.4119 22.4 27.4119C23.5 27.4119 24.5833 27.3469 25.65 27.2171C26.7167 27.0873 27.5167 26.8925 28.05 26.6328L24.85 23.5167C24.4833 23.679 24.0333 23.8007 23.5 23.8819C22.9667 23.963 22.4667 24.0036 22 24.0036C19.6667 24.0036 17.6667 23.2084 16 21.6178C14.3333 20.0273 13.5 18.0635 13.5 15.7265C13.5 15.2396 13.5417 14.7527 13.625 14.2658C13.7083 13.7789 13.8333 13.3407 14 12.9512L9.15 8.22834Z" fill="black"/>
</svg>
